<svg xmlns="http://www.w3.org/2000/svg" viewBox="0 0 97.86 98.55"><defs><style>.cls-1{fill:#8a90ff;}.cls-2{fill:#ff5933;}.cls-3{fill:#ffbbf0;}.cls-4{fill:#ffdd9f;}</style></defs><g id="Layer_2" data-name="Layer 2"><g id="Layer_1-2" data-name="Layer 1"><path class="cls-1" d="M96.6,1.5C92.66-2.74,80.55,3.35,80,3.61A52.32,52.32,0,0,0,73.44,8,97.68,97.68,0,0,0,64,15.78c-2.43,2.28-4.4,4.38-5.92,6.08a93.3,93.3,0,0,0-8.79,11.66l-5.66-5c-.49-.34-3.36-2.28-6.21-1.23a5.44,5.44,0,0,0-1.31.72L31.78,32.6q16.53,16.51,33,33l4.48-4.31a5,5,0,0,0,1.69-3c.09-.73.39-2.28-2.19-4.9l-5.16-5.24A78.27,78.27,0,0,0,79,36.82a87.91,87.91,0,0,0,6.59-7.1A68,68,0,0,0,93.81,18.4a26.08,26.08,0,0,0,3.3-7.69C97.76,7.74,98.62,3.67,96.6,1.5ZM86.84,17.55a4.82,4.82,0,0,1-7-1.26,4.71,4.71,0,0,1,.5-5.46,4.8,4.8,0,0,1,6.72-.38A4.78,4.78,0,0,1,86.84,17.55Z"/><path class="cls-2" d="M87.09,10.45a4.8,4.8,0,0,0-6.72.38,4.71,4.71,0,0,0-.5,5.46,4.82,4.82,0,0,0,7,1.26A4.78,4.78,0,0,0,87.09,10.45Zm-2,4.48a1.64,1.64,0,0,1-2.54,0,1.53,1.53,0,0,1,2-2.19A1.59,1.59,0,0,1,85.11,14.93Z"/><path class="cls-3" d="M85.11,14.93a1.64,1.64,0,0,1-2.54,0,1.53,1.53,0,0,1,2-2.19A1.59,1.59,0,0,1,85.11,14.93Z"/><path class="cls-4" d="M58.57,71.21A90.11,90.11,0,0,0,48.43,82.54a47.7,47.7,0,0,0-3.87,6.37c-.36.71-.69,1.44-1,2.25-2.54,6-2.47,6.81-3.34,7.27-.65.34-2,.52-10.77-6.6a118,118,0,0,1-9.76-8.62c-2.15-2.14-3.64-3.83-5.08-5.45a141.28,141.28,0,0,1-9-11.28C-.56,57.91-.17,56.46.15,55.84c.84-1.63,3-1.05,7.72-3.39.47-.23.93-.5,1.47-.8,0,0,3-1.64,5.29-3.08a95.84,95.84,0,0,0,11.66-9.3Z"/></g></g></svg>