<svg xmlns="http://www.w3.org/2000/svg" viewBox="0 0 79.25 78.88"><defs><style>.cls-1{fill:#ffcdb4;}.cls-2{fill:#8a8aff;}</style></defs><g id="Layer_2" data-name="Layer 2"><g id="Layer_1-2" data-name="Layer 1"><path class="cls-1" d="M77.47,28C72.66,13,58.64,1.86,44.89.23c-5.88-.7-8.65.38-9.59,1A11.86,11.86,0,0,0,31,6.53c-1.82,4-.24,5.49-2.07,9.92a17.85,17.85,0,0,1-3.59,5.46,15,15,0,0,1-5.54,3.8c-2.61,1-4,.5-6.46.76-.42,0-6.57.76-10.15,4.73C-2.49,37.51,1,49.08,1.77,51.61c.07.22.12.38.15.46C6.4,66.38,21.34,78.14,38.17,78.86c1.71.08,19.55.55,31.69-13.6a41.07,41.07,0,0,0,9.38-24.43A39,39,0,0,0,77.47,28ZM50.59,35.35a9.5,9.5,0,0,1-10.65-8,9.28,9.28,0,0,1,8.88-10.15,9.39,9.39,0,0,1,9.38,9.18A9.19,9.19,0,0,1,50.59,35.35Z"/><path class="cls-2" d="M58.2,26.41a9.19,9.19,0,0,1-7.61,8.94,9.5,9.5,0,0,1-10.65-8,9.28,9.28,0,0,1,8.88-10.15A9.39,9.39,0,0,1,58.2,26.41Z"/></g></g></svg>