<svg xmlns="http://www.w3.org/2000/svg" viewBox="0 0 71.4 79.07"><defs><style>.cls-1{fill:#ff3f65;}.cls-2{fill:#e57c92;}.cls-3{fill:none;}.cls-4{fill:#6c9;}</style></defs><g id="Layer_2" data-name="Layer 2"><g id="background"><path class="cls-1" d="M52.56,17.81c-.44,6.38-2.75,10.19-5.49,12.5C43.4,33.4,39,33.8,37.22,34s-7.68-.67-12.29-4.55a15.89,15.89,0,0,1-5.71-11.42S18.46.57,36.84.06C37.57-.42,53.66,1.71,52.56,17.81Z"/><path class="cls-2" d="M71.4,50V69.27L.25,69.44S-.17,59.64.08,52s5.58-6.59,5.58-6.59l19-.51.26-15.45c4.61,3.88,10.58,4.78,12.29,4.55s6.18-.63,9.85-3.72l.33,15s14.88-.17,19.1-.17S71.4,50,71.4,50Z"/><line class="cls-3" x1="47.07" y1="30.31" x2="47.07" y2="30.23"/><line class="cls-3" x1="24.93" y1="29.48" x2="24.93" y2="29.47"/><path class="cls-4" d="M3.63,69.27S2.78,78.73,8.7,78.9s54.76.17,54.76.17,5.58-2,4.23-9.63"/></g></g></svg>