<svg xmlns="http://www.w3.org/2000/svg" viewBox="0 0 61.82 103.76"><defs><style>.cls-1{fill:#3fdbff;}.cls-2{fill:#1f58ff;}</style></defs><g id="Layer_2" data-name="Layer 2"><g id="background"><path class="cls-1" d="M24.23,0S53.39,22.31,56.68,33.46c3.4,11.5,7.74,23.34,3.17,41.2C55.55,91.5,49,105.58,28.54,103.56,9.26,101.66.66,86.58.15,82S.23,72.59,5,69.21c9.31-6.65,25.65-23.87,24.33-42.59C28.12,9.79,28.09,11.66,24.23,0Z"/><path class="cls-2" d="M28.42,55.27s-3.63,16.52,5.95,22.56c8.08,5.09,14.14,3,11.08,12.29A10.53,10.53,0,0,1,36,97.4a20.19,20.19,0,0,1-7.15-1.19c-11.28-3.8-10.78-14-10.52-19.52C18.56,70.63,24.74,59.32,28.42,55.27Z"/></g></g></svg>